<?xml version="1.0" encoding="UTF-8"?>
<!DOCTYPE svg PUBLIC "-//W3C//DTD SVG 1.1//EN" "http://www.w3.org/Graphics/SVG/1.1/DTD/svg11.dtd">
<!-- Creator: CorelDRAW X7 -->
<svg xmlns="http://www.w3.org/2000/svg" xml:space="preserve" width="139.51mm" height="29.023mm" version="1.1" style="shape-rendering:geometricPrecision; text-rendering:geometricPrecision; image-rendering:optimizeQuality; fill-rule:evenodd; clip-rule:evenodd"
viewBox="0 0 13955 2903"
 xmlns:xlink="http://www.w3.org/1999/xlink">
 <defs>
  <style type="text/css">
   <![CDATA[
    .str0 {stroke:#8F4E8B;stroke-width:7.62208}
    .fil0 {fill:#453A62}
    .fil1 {fill:#5E5086}
    .fil3 {fill:#8F4E8B}
    .fil2 {fill:white}
    .fil4 {fill:#2B2A29;fill-rule:nonzero}
    .fil5 {fill:#8F4E8B;fill-rule:nonzero}
   ]]>
  </style>
 </defs>
 <g id="Vrstva_x0020_1">
  <metadata id="CorelCorpID_0Corel-Layer"/>
  <g id="_2051212372624">
   <path class="fil0" d="M2314 312l2 0c6,-3 106,-38 125,-44 12,-5 16,-4 30,-4l338 0c2,1 31,46 35,51l224 332c4,7 12,20 17,26 6,-6 8,-14 22,-21 11,-5 22,-7 34,-4 20,5 37,24 37,48 0,36 -38,61 -71,44 -13,-7 -14,-12 -22,-21 -4,4 -31,46 -37,54 -12,19 -24,36 -36,54 -12,18 -216,318 -218,325 17,8 34,33 40,56 12,51 -19,103 -70,116 -15,3 -30,4 -44,1 -20,-4 -26,-12 -34,-14 -5,6 -50,74 -59,88 -6,7 -100,83 -120,99 -3,3 -9,9 -13,11l-1 2 372 0c3,-1 23,-32 25,-35l355 -527c4,-6 9,-14 13,-18 5,3 318,470 343,508 9,12 17,24 25,36 3,5 22,34 25,36l314 0c-3,-7 -11,-17 -16,-24l-142 -211c-11,-16 -22,-31 -32,-47 -20,-32 -43,-63 -64,-95l-444 -659c-22,-32 -44,-63 -64,-95 -21,-32 -43,-62 -64,-94 -40,-62 -86,-126 -127,-188 -10,-16 -21,-31 -32,-47 -10,-16 -21,-33 -32,-48l-634 0 0 309z"/>
   <path class="fil1" d="M2493 1511l1 -2c6,-19 47,-156 53,-165l320 -474c5,-8 53,-78 57,-86l-88 0c-1,-15 -1,-157 1,-163l87 0c-2,-5 -18,-28 -22,-34l-132 -196c-4,-5 -18,-29 -22,-31 -6,-2 -290,2 -300,-1 -17,-5 -86,-31 -110,-39 -6,-2 -17,-5 -22,-8l-2 0 0 279 348 0 57 84c4,6 16,22 18,28 -2,6 -12,19 -16,25l-51 76c-23,34 -45,67 -68,101l-374 555c-5,7 -32,46 -34,51l299 0z"/>
   <path class="fil2" d="M2736 1209c13,-3 25,7 27,18 2,13 -8,24 -18,26 -28,6 -40,-38 -9,-44zm-420 -897c5,3 16,6 22,8 24,8 93,34 110,39 10,3 294,-1 300,1 4,2 18,26 22,31l132 196c4,6 20,29 22,34l-87 0c-2,6 -2,148 -1,163l88 0c-4,8 -52,78 -57,86l-320 474c-6,9 -47,146 -53,165 4,-2 10,-8 13,-11 20,-16 114,-92 120,-99 9,-14 54,-82 59,-88 8,2 14,10 34,14 14,3 29,2 44,-1 51,-13 82,-65 70,-116 -6,-23 -23,-48 -40,-56 2,-7 206,-307 218,-325 12,-18 24,-35 36,-54 6,-8 33,-50 37,-54 8,9 9,14 22,21 33,17 71,-8 71,-44 0,-24 -17,-43 -37,-48 -12,-3 -23,-1 -34,4 -14,7 -16,15 -22,21 -5,-6 -13,-19 -17,-26l-224 -332c-4,-5 -33,-50 -35,-51l-338 0c-14,0 -18,-1 -30,4 -19,6 -119,41 -125,44z"/>
   <path class="fil3" d="M2733 1190c-56,13 -36,92 15,81 20,-4 37,-23 33,-48 -3,-20 -24,-38 -48,-33z"/>
   <polygon class="fil4" points="0,1511 0,0 351,0 351,586 1449,586 1449,0 1804,0 1804,1511 1449,1511 1449,861 351,861 351,1511 "/>
   <path class="fil4" d="M5493 289l-922 0 0 318 878 0c138,0 231,25 280,75 48,49 73,141 73,276l0 204c0,133 -25,226 -73,275 -49,49 -142,74 -280,74l-869 0c-138,0 -231,-25 -279,-74 -49,-49 -73,-142 -73,-275l0 -41 289 -63 0 175 995 0 0 -339 -878 0c-137,0 -229,-25 -277,-74 -48,-49 -72,-141 -72,-275l0 -164c0,-134 24,-226 72,-276 48,-49 140,-74 277,-74l799 0c133,0 224,24 274,71 50,48 75,132 75,254l0 31 -289 71 0 -169zm988 1222l0 -1480 330 0 0 618 780 -618 474 0 -932 697 1047 783 -526 0 -843 -651 0 651 -330 0zm2165 0l0 -1480 1440 0 0 252 -1113 0 0 330 650 0 0 253 -650 0 0 367 1127 0 0 278 -1454 0zm2059 0l0 -1480 327 0 0 1202 1056 0 0 278 -1383 0zm1863 0l0 -1480 327 0 0 1202 1056 0 0 278 -1383 0z"/>
   <path class="fil5 str0" d="M7990 2165l0 734 -211 0 0 -734 -417 0 0 -160 1048 0 0 160 -420 0zm659 51c0,-81 16,-136 46,-166 31,-30 91,-45 179,-45l669 0c89,0 149,15 180,45 31,30 46,85 46,166l0 472c0,82 -15,137 -46,167 -31,30 -91,44 -180,44l-669 0c-88,0 -148,-14 -179,-44 -30,-30 -46,-85 -46,-167l0 -472zm211 515l698 0 0 -566 -698 0 0 566zm1336 -515c0,-81 15,-136 46,-166 31,-30 90,-45 179,-45l669 0c88,0 148,15 179,45 31,30 47,85 47,166l0 472c0,82 -16,137 -47,167 -31,30 -91,44 -179,44l-669 0c-89,0 -148,-14 -179,-44 -31,-30 -46,-85 -46,-167l0 -472zm211 515l697 0 0 -566 -697 0 0 566zm1354 168l0 -894 212 0 0 726 681 0 0 168 -893 0zm1991 -738l-595 0 0 192 566 0c90,0 150,15 181,45 31,30 47,86 47,167l0 123c0,81 -16,137 -47,167 -31,29 -91,44 -181,44l-561 0c-89,0 -149,-15 -180,-44 -32,-30 -47,-86 -47,-167l0 -24 186 -39 0 106 643 0 0 -204 -567 0c-88,0 -148,-15 -179,-45 -31,-30 -46,-85 -46,-166l0 -99c0,-82 15,-137 46,-167 31,-30 91,-45 179,-45l516 0c86,0 145,15 177,43 33,29 49,80 49,153l0 19 -187 43 0 -102z"/>
  </g>
 </g>
</svg>
