<?xml version="1.0" encoding="UTF-8"?>
<!DOCTYPE svg PUBLIC "-//W3C//DTD SVG 1.1//EN" "http://www.w3.org/Graphics/SVG/1.1/DTD/svg11.dtd">
<!-- Creator: CorelDRAW X7 -->
<svg xmlns="http://www.w3.org/2000/svg" xml:space="preserve" width="297mm" height="210mm" version="1.1" style="shape-rendering:geometricPrecision; text-rendering:geometricPrecision; image-rendering:optimizeQuality; fill-rule:evenodd; clip-rule:evenodd"
viewBox="0 0 29700 21000"
 xmlns:xlink="http://www.w3.org/1999/xlink">
 <defs>
  <style type="text/css">
   <![CDATA[
    .fil0 {fill:#453A62}
    .fil1 {fill:#5E5086}
    .fil3 {fill:#8F4E8B}
    .fil2 {fill:white}
   ]]>
  </style>
 </defs>
 <g id="Vrstva_x0020_1">
  <metadata id="CorelCorpID_0Corel-Layer"/>
  <g id="_2051103259872">
   <path class="fil0" d="M11593 8608l12 0c22,-15 451,-161 529,-189 53,-19 68,-15 129,-15l1436 1c9,3 133,194 149,217l953 1413c19,28 54,85 75,107 24,-24 33,-59 94,-88 45,-21 91,-29 144,-15 82,21 157,99 157,200 1,156 -163,260 -304,188 -54,-27 -57,-50 -91,-86 -18,17 -133,193 -157,229 -54,79 -103,151 -156,231 -49,72 -918,1350 -925,1379 69,34 144,141 168,240 52,216 -82,440 -297,493 -63,15 -126,16 -189,3 -83,-18 -110,-48 -141,-59 -25,26 -215,316 -255,373 -22,33 -422,356 -506,424 -15,11 -42,37 -57,44l-5 10 1580 0c16,-3 99,-135 108,-148l1513 -2244c15,-22 36,-59 53,-77 21,16 1353,2002 1461,2162 37,54 71,102 105,155 14,22 93,144 108,152l1333 0c-12,-29 -47,-72 -65,-100l-607 -900c-45,-66 -91,-131 -135,-200 -86,-135 -181,-267 -272,-403l-1891 -2805c-91,-136 -184,-267 -271,-402 -88,-136 -183,-266 -270,-400 -172,-265 -370,-539 -541,-803 -44,-67 -91,-130 -135,-199 -43,-67 -91,-138 -137,-203l-2699 -1 -1 1316z"/>
   <path class="fil1" d="M12356 13708l5 -10c25,-77 200,-663 225,-699l1360 -2016c24,-36 228,-334 245,-367l-375 -1c-4,-63 -5,-667 2,-694l372 0c-8,-22 -76,-119 -94,-144l-562 -833c-15,-22 -78,-125 -95,-134 -25,-6 -1234,9 -1274,-3 -73,-20 -368,-130 -470,-166 -24,-9 -69,-22 -90,-33l-12 0 0 1186 1482 1 242 357c19,27 69,95 79,120 -11,26 -51,78 -70,106l-217 322c-97,144 -192,286 -290,430l-1592 2361c-21,31 -136,197 -144,217l1273 0z"/>
   <path class="fil2" d="M13390 12422c57,-12 106,30 114,78 9,58 -31,102 -78,111 -118,24 -167,-160 -36,-189zm-1785 -3814c21,11 66,24 90,33 102,36 397,146 470,166 40,12 1249,-3 1274,3 17,9 80,112 95,134l562 833c18,25 86,122 94,144l-372 0c-7,27 -6,631 -2,694l375 1c-17,33 -221,331 -245,367l-1360 2016c-25,36 -200,622 -225,699 15,-7 42,-33 57,-44 84,-68 484,-391 506,-424 40,-57 230,-347 255,-373 31,11 58,41 141,59 63,13 126,12 189,-3 215,-53 349,-277 297,-493 -24,-99 -99,-206 -168,-240 7,-29 876,-1307 925,-1379 53,-80 102,-152 156,-231 24,-36 139,-212 157,-229 34,36 37,59 91,86 141,72 305,-32 304,-188 0,-101 -75,-179 -157,-200 -53,-14 -99,-6 -144,15 -61,29 -70,64 -94,88 -21,-22 -56,-79 -75,-107l-953 -1413c-16,-23 -140,-214 -149,-217l-1436 -1c-61,0 -76,-4 -129,15 -78,28 -507,174 -529,189z"/>
   <path class="fil3" d="M13375 12344c-238,52 -150,389 66,345 84,-17 157,-98 140,-204 -13,-87 -103,-163 -206,-141z"/>
  </g>
 </g>
</svg>
